Coordinates
version=1
nRows=13
nColumns=40
inDegrees=yes

Units are S.I. units (second, meters, Newtons, ...)
If the header above contains a line with 'inDegrees', this indicates whether rotational values are in degrees (yes) or radians (no).

endheader
time	pelvis_tilt	pelvis_list	pelvis_rotation	pelvis_tx	pelvis_ty	pelvis_tz	hip_flexion_r	hip_adduction_r	hip_rotation_r	knee_angle_r	knee_angle_r_beta	ankle_angle_r	subtalar_angle_r	mtp_angle_r	hip_flexion_l	hip_adduction_l	hip_rotation_l	knee_angle_l	knee_angle_l_beta	ankle_angle_l	subtalar_angle_l	mtp_angle_l	lumbar_extension	lumbar_bending	lumbar_rotation	arm_flex_r	arm_add_r	arm_rot_r	elbow_flex_r	pro_sup_r	wrist_flex_r	wrist_dev_r	arm_flex_l	arm_add_l	arm_rot_l	elbow_flex_l	pro_sup_l	wrist_flex_l	wrist_dev_l
      0.67000000	      0.05071015	    -10.64537896	     83.32854989	      0.21967210	      0.93868521	      0.98445709	    -12.91927922	      1.59649968	      5.63057553	      7.90918180	      0.13804126	     11.26151105	      0.00000000	      0.00000000	     36.58906254	     -3.21387349	     -5.58586477	      0.06998272	      0.00122143	      0.61138048	      0.00000000	      0.00000000	      1.51729793	     -1.85693737	      6.42838097	      0.00000000	      0.00000000	      0.00000000	      0.00000000	      0.00000000	      0.00000000	      0.00000000	      0.00000000	      0.00000000	      0.00000000	      0.00000000	      0.00000000	      0.00000000	      0.00000000
      0.68000000	     -0.56358398	    -10.83338229	     83.47876184	      0.21841567	      0.93803312	      0.96358311	    -12.49718472	      0.84910763	      5.05007274	     10.16623911	      0.17743434	      9.42094896	      0.00000000	      0.00000000	     36.71323062	     -2.33070230	     -5.73054749	      1.22457231	      0.02137282	     -0.76588766	      0.00000000	      0.00000000	      1.82539575	     -2.61002045	      6.35305882	      0.00000000	      0.00000000	      0.00000000	      0.00000000	      0.00000000	      0.00000000	      0.00000000	      0.00000000	      0.00000000	      0.00000000	      0.00000000	      0.00000000	      0.00000000	      0.00000000
      0.69000000	     -1.19630135	    -10.94868440	     83.71839027	      0.21703954	      0.93816773	      0.94258754	    -11.82488167	      0.10556233	      4.29021427	     12.86876070	      0.22460224	      6.95339511	      0.00000000	      0.00000000	     36.71876472	     -1.39299366	     -5.76928262	      2.57014186	      0.04485744	     -2.35412541	      0.00000000	      0.00000000	      2.04696403	     -3.40280980	      6.13576424	      0.00000000	      0.00000000	      0.00000000	      0.00000000	      0.00000000	      0.00000000	      0.00000000	      0.00000000	      0.00000000	      0.00000000	      0.00000000	      0.00000000	      0.00000000	      0.00000000
      0.70000000	     -1.86251764	    -10.99235699	     84.04897524	      0.21552574	      0.93902417	      0.92152421	    -10.88413805	     -0.66810757	      3.38169230	     16.03139336	      0.27980060	      3.88176802	      0.00000000	      0.00000000	     36.62116424	     -0.39196476	     -5.67783341	      4.06557829	      0.07095773	     -4.02738391	      0.00000000	      0.00000000	      2.16777364	     -4.25595575	      5.78913737	      0.00000000	      0.00000000	      0.00000000	      0.00000000	      0.00000000	      0.00000000	      0.00000000	      0.00000000	      0.00000000	      0.00000000	      0.00000000	      0.00000000	      0.00000000	      0.00000000
      0.71000000	     -2.54805077	    -10.95463330	     84.43485295	      0.21390995	      0.94058995	      0.90048033	     -9.68068202	     -1.47574587	      2.40346816	     19.64066000	      0.34279418	      0.27014050	      0.00000000	     -0.00000000	     36.40008293	      0.64030149	     -5.46458964	      5.64518814	      0.09852712	     -5.58135591	     -0.00000000	     -0.00000000	      2.18128382	     -5.12717457	      5.32561705	      0.00000000	     -0.00000000	     -0.00000000	      0.00000000	      0.00000000	     -0.00000000	     -0.00000000	     -0.00000000	      0.00000000	      0.00000000	      0.00000000	      0.00000000	      0.00000000	      0.00000000
      0.72000000	     -3.27311197	    -10.82345211	     84.88598017	      0.21215996	      0.94276955	      0.87950611	     -8.27113272	     -2.34142903	      1.47091119	     23.60864490	      0.41204859	     -3.75923453	      0.00000000	      0.00000000	     36.02288784	      1.73845796	     -5.11596119	      7.21123500	      0.12585979	     -6.88838904	      0.00000000	      0.00000000	      2.04673693	     -6.04297496	      4.74010470	      0.00000000	      0.00000000	      0.00000000	      0.00000000	      0.00000000	      0.00000000	      0.00000000	      0.00000000	      0.00000000	      0.00000000	      0.00000000	      0.00000000	      0.00000000	      0.00000000
      0.73000000	     -3.93578828	    -10.85882117	     85.31264951	      0.21048807	      0.94510420	      0.85898515	     -6.30826574	     -3.12372786	      0.80988757	     28.01389060	      0.48893463	     -7.74395170	      0.00000000	      0.00000000	     35.82928031	      2.71465313	     -4.74004974	      8.86340443	      0.15469559	     -7.74267676	      0.00000000	      0.00000000	      2.06566741	     -6.85661862	      4.11555884	      0.00000000	      0.00000000	      0.00000000	      0.00000000	      0.00000000	      0.00000000	      0.00000000	      0.00000000	      0.00000000	      0.00000000	      0.00000000	      0.00000000	      0.00000000	      0.00000000
      0.74000000	     -4.61182604	    -10.64223431	     85.76603453	      0.20876223	      0.94809624	      0.83856188	     -4.44050447	     -3.95299499	      0.23456831	     32.47360959	      0.56677141	    -11.62510064	      0.00000000	      0.00000000	     35.25342333	      3.73628408	     -4.32868369	     10.36323392	      0.18087255	     -8.14544321	      0.00000000	      0.00000000	      1.75494081	     -7.67805839	      3.44536342	      0.00000000	      0.00000000	      0.00000000	      0.00000000	      0.00000000	      0.00000000	      0.00000000	      0.00000000	      0.00000000	      0.00000000	      0.00000000	      0.00000000	      0.00000000	      0.00000000
      0.75000000	     -5.15332821	    -10.72572137	     86.14382887	      0.20725193	      0.95085449	      0.81882909	     -1.97237978	     -4.57470302	      0.01646662	     37.12111208	      0.64788563	    -14.68606062	      0.00000000	      0.00000000	     34.99819408	      4.53300847	     -3.95690150	     11.88189699	      0.20737822	     -8.10583099	      0.00000000	      0.00000000	      1.73996244	     -8.31430036	      2.82020546	      0.00000000	      0.00000000	      0.00000000	      0.00000000	      0.00000000	      0.00000000	      0.00000000	      0.00000000	      0.00000000	      0.00000000	      0.00000000	      0.00000000	      0.00000000	      0.00000000
      0.76000000	     -5.75136331	    -10.43097035	     86.55976290	      0.20561664	      0.95433953	      0.79902749	      0.08091927	     -5.32282184	     -0.30134351	     41.43374111	      0.72315520	    -17.16981655	      0.00000000	      0.00000000	     34.10400202	      5.47295872	     -3.50751147	     13.00842331	      0.22703982	     -7.70544383	      0.00000000	      0.00000000	      1.26921060	     -9.00099379	      2.08786777	      0.00000000	      0.00000000	      0.00000000	      0.00000000	      0.00000000	      0.00000000	      0.00000000	      0.00000000	      0.00000000	      0.00000000	      0.00000000	      0.00000000	      0.00000000	      0.00000000
      0.77000000	     -6.21106334	    -10.41104801	     86.87540829	      0.20421184	      0.95756694	      0.77983990	      2.57309723	     -5.88358374	     -0.42449114	     45.59822920	      0.79583923	    -18.44001781	     -0.00000000	     -0.00000000	     33.40514599	      6.19898335	     -3.14713949	     13.96176066	      0.24367869	     -7.01214987	     -0.00000000	      0.00000000	      1.09521405	     -9.49927112	      1.46233464	     -0.00000000	      0.00000000	      0.00000000	      0.00000000	      0.00000000	     -0.00000000	      0.00000000	      0.00000000	     -0.00000000	      0.00000000	      0.00000000	      0.00000000	      0.00000000	     -0.00000000
      0.78000000	     -6.48662058	    -10.51633211	     87.11130458	      0.20295973	      0.96073753	      0.76117523	      5.25906123	     -6.21351683	     -0.42064591	     49.43258251	      0.86276132	    -18.65085788	      0.00000000	      0.00000000	     32.72320352	      6.69407924	     -2.85040556	     14.70744734	      0.25669338	     -6.21697011	      0.00000000	      0.00000000	      1.03241361	     -9.74035006	      0.95143233	      0.00000000	      0.00000000	      0.00000000	      0.00000000	      0.00000000	      0.00000000	      0.00000000	      0.00000000	      0.00000000	      0.00000000	      0.00000000	      0.00000000	      0.00000000	      0.00000000
      0.79000000	     -6.71520116	    -10.31640374	     87.38857749	      0.20162851	      0.96453321	      0.74237848	      7.47984884	     -6.57067690	     -0.61197227	     52.62759192	      0.91852476	    -18.21434134	      0.00000000	     -0.00000000	     31.43705996	      7.22206468	     -2.47947161	     14.98959983	      0.26161787	     -5.18959341	      0.00000000	     -0.00000000	      0.62509869	     -9.91805056	      0.32878269	      0.00000000	     -0.00000000	      0.00000000	      0.00000000	      0.00000000	      0.00000000	     -0.00000000	      0.00000000	     -0.00000000	      0.00000000	      0.00000000	      0.00000000	      0.00000000	      0.00000000
